<svg width="100" height="100" viewBox="0 0 100 100" fill="none" xmlns="http://www.w3.org/2000/svg">
<g clip-path="url(#clip0_1418_176)">
<path d="M50 36.4901C53.1031 42.0408 57.6846 46.6223 63.2353 49.7253C57.6846 52.8284 53.1031 57.4099 50 62.9606C46.897 57.4099 42.3154 52.8284 36.7647 49.7253C42.3154 46.6223 46.897 42.0408 50 36.4901Z" fill="#B843FF"/>
<path d="M49.9997 13.2842C73.4321 13.2842 91.5885 30.0367 91.5885 49.7256C91.5884 69.4144 73.432 86.167 49.9997 86.167C26.5675 86.1668 8.41194 69.4143 8.41179 49.7256C8.41179 30.0368 26.5674 13.2843 49.9997 13.2842Z" stroke="#B843FF" stroke-width="8"/>
<path d="M59.7583 32.823C69.8657 38.6584 77.5801 46.0319 81.9613 53.0538C86.4462 60.2419 86.9243 66.0841 84.7772 69.8034C82.6299 73.5227 77.331 76.0305 68.8632 75.7405C60.5915 75.4572 50.3486 72.463 40.2412 66.6275C30.134 60.7921 22.4194 53.4185 18.0383 46.3967C13.5534 39.2084 13.0756 33.3655 15.2229 29.6462C17.3703 25.9272 22.6691 23.4201 31.1364 23.7101C39.4081 23.9933 49.6511 26.9876 59.7583 32.823Z" stroke="#E0ADFF" stroke-width="8"/>
</g>
<defs>
<clipPath id="clip0_1418_176">
<rect width="100" height="100" fill="white"/>
</clipPath>
</defs>
</svg>
